<svg width="14" height="15" viewBox="0 0 14 15" fill="none" xmlns="http://www.w3.org/2000/svg">
<path d="M12.5899 8.24407H13.9111V12.2704C13.9111 12.6269 13.7748 12.9415 13.5021 13.2141C13.2505 13.4867 12.9464 13.623 12.5899 13.623C12.5899 13.8118 12.5165 13.9691 12.3697 14.0949C12.2439 14.2207 12.0866 14.2836 11.8979 14.2836H2.52399C2.33526 14.2836 2.16749 14.2207 2.0207 14.0949C1.89487 13.9691 1.83196 13.8118 1.83196 13.623C1.47546 13.623 1.1609 13.4867 0.888283 13.2141C0.636635 12.9415 0.510811 12.6269 0.510811 12.2704V8.24407H2.52399V7.74078C2.52399 7.34233 2.67079 6.99632 2.96438 6.70273C3.27894 6.38817 3.63544 6.23089 4.03388 6.23089C4.4533 6.23089 4.83077 6.39865 5.1663 6.73418L6.07852 7.77223C6.20435 7.91903 6.39308 8.07631 6.64473 8.24407H11.2373V2.77073C11.2373 2.62393 11.1849 2.49811 11.08 2.39326C10.9752 2.26743 10.8389 2.20452 10.6711 2.20452C10.5243 2.20452 10.3985 2.25695 10.2936 2.3618L9.44431 3.21111C9.48625 3.37888 9.50723 3.49422 9.50723 3.55713C9.50723 3.78781 9.43383 4.02897 9.28703 4.28062L7.43113 2.42471C7.68278 2.27792 7.92394 2.20452 8.15462 2.20452C8.25947 2.20452 8.37481 2.22549 8.50063 2.26743L9.34995 1.41812C9.70645 1.06162 10.1468 0.883369 10.6711 0.883369C11.1954 0.883369 11.6462 1.07211 12.0237 1.44958C12.4012 1.80608 12.5899 2.24646 12.5899 2.77073V8.24407ZM2.90147 5.19284C2.64982 4.92022 2.52399 4.59518 2.52399 4.2177C2.52399 3.84023 2.64982 3.52567 2.90147 3.27402C3.15311 3.02238 3.46767 2.89655 3.84515 2.89655C4.22262 2.89655 4.53718 3.02238 4.78883 3.27402C5.06144 3.52567 5.19775 3.84023 5.19775 4.2177C5.19775 4.59518 5.06144 4.92022 4.78883 5.19284C4.53718 5.44449 4.22262 5.57031 3.84515 5.57031C3.46767 5.57031 3.15311 5.44449 2.90147 5.19284Z" fill="#65665C"/>
</svg>
