<svg width="15" height="11" viewBox="0 0 15 11" fill="none" xmlns="http://www.w3.org/2000/svg">
<path d="M13.6526 4.76564V2.90974C13.6526 2.53226 13.5582 2.19673 13.3695 1.90314C13.2017 1.58858 12.9606 1.34742 12.646 1.17966C12.3524 0.990921 12.0169 0.896553 11.6394 0.896553H8.96566C8.69304 0.896553 8.44139 0.94898 8.21072 1.05383C7.98004 1.13772 7.78082 1.25305 7.61305 1.39985C7.44529 1.25305 7.24607 1.13772 7.01539 1.05383C6.78471 0.94898 6.53306 0.896553 6.26044 0.896553H3.58669C3.20921 0.896553 2.8632 0.990921 2.54864 1.17966C2.25505 1.34742 2.01389 1.58858 1.82515 1.90314C1.65738 2.19673 1.5735 2.53226 1.5735 2.90974V4.76564C1.36379 4.95438 1.19603 5.17457 1.07021 5.42622C0.965352 5.67786 0.912926 5.95048 0.912926 6.24407V10.2704H2.23408V8.94929H12.992V10.2704H14.3132V6.24407C14.3132 5.95048 14.2503 5.67786 14.1244 5.42622C14.0196 5.17457 13.8623 4.95438 13.6526 4.76564ZM8.96566 2.2177H11.6394C11.8282 2.2177 11.9854 2.2911 12.1113 2.4379C12.2371 2.56372 12.3 2.721 12.3 2.90974V4.23089H8.27363V2.90974C8.27363 2.721 8.33654 2.56372 8.46236 2.4379C8.60916 2.2911 8.77692 2.2177 8.96566 2.2177ZM2.92611 2.90974C2.92611 2.721 2.98902 2.56372 3.11485 2.4379C3.24067 2.2911 3.39795 2.2177 3.58669 2.2177H6.26044C6.44918 2.2177 6.60646 2.2911 6.73228 2.4379C6.87908 2.56372 6.95248 2.721 6.95248 2.90974V4.23089H2.92611V2.90974ZM2.23408 7.59668V6.24407C2.23408 6.07631 2.29699 5.92951 2.42281 5.80369C2.56961 5.65689 2.73737 5.5835 2.92611 5.5835H12.3C12.4887 5.5835 12.646 5.65689 12.7718 5.80369C12.9186 5.92951 12.992 6.07631 12.992 6.24407V7.59668H2.23408Z" fill="#65665C"/>
</svg>
