<svg width="9" height="12" viewBox="0 0 9 12" fill="none" xmlns="http://www.w3.org/2000/svg">
<path d="M7.86842 2.66694H6.73684C6.73684 2.24589 6.63158 1.8687 6.42105 1.53536C6.22807 1.20203 5.96491 0.938871 5.63158 0.745889C5.29825 0.535363 4.92105 0.430099 4.5 0.430099C4.07895 0.430099 3.70175 0.535363 3.36842 0.745889C3.03509 0.938871 2.76316 1.20203 2.55263 1.53536C2.35965 1.8687 2.26316 2.24589 2.26316 2.66694H1.13158C0.81579 2.66694 0.54386 2.78098 0.315789 3.00905C0.105263 3.21957 0 3.48273 0 3.79852V10.5354C0 10.8336 0.105263 11.0968 0.315789 11.3248C0.54386 11.5354 0.81579 11.6406 1.13158 11.6406H7.86842C8.18421 11.6406 8.44737 11.5354 8.6579 11.3248C8.88597 11.0968 9 10.8336 9 10.5354V3.79852C9 3.48273 8.88597 3.21957 8.6579 3.00905C8.44737 2.78098 8.18421 2.66694 7.86842 2.66694ZM3.36842 4.90378C3.36842 5.06168 3.31579 5.20203 3.21053 5.32484C3.10526 5.4301 2.97368 5.48273 2.81579 5.48273C2.65789 5.48273 2.52632 5.4301 2.42105 5.32484C2.31579 5.20203 2.26316 5.06168 2.26316 4.90378V3.79852H3.36842V4.90378ZM4.5 1.53536C4.81579 1.53536 5.07895 1.6494 5.28947 1.87747C5.51754 2.08799 5.63158 2.35115 5.63158 2.66694H3.36842C3.36842 2.35115 3.47368 2.08799 3.68421 1.87747C3.91228 1.6494 4.18421 1.53536 4.5 1.53536ZM6.73684 4.90378C6.73684 5.06168 6.68421 5.20203 6.57895 5.32484C6.47368 5.4301 6.34211 5.48273 6.18421 5.48273C6.02632 5.48273 5.89474 5.4301 5.78947 5.32484C5.68421 5.20203 5.63158 5.06168 5.63158 4.90378V3.79852H6.73684V4.90378Z" fill="#2A2C1F"/>
</svg>
