<svg width="10" height="15" viewBox="0 0 10 15" fill="none" xmlns="http://www.w3.org/2000/svg">
<path d="M4.01561 6.76564C4.35114 7.0802 4.74958 7.23748 5.21094 7.23748C5.67229 7.23748 6.06025 7.0802 6.37481 6.76564C6.71034 6.43011 6.87811 6.03167 6.87811 5.57031C6.87811 5.10896 6.71034 4.721 6.37481 4.40644C6.06025 4.07091 5.67229 3.90314 5.21094 3.90314C4.74958 3.90314 4.35114 4.07091 4.01561 4.40644C3.70105 4.721 3.54377 5.10896 3.54377 5.57031C3.54377 6.03167 3.70105 6.43011 4.01561 6.76564ZM1.8766 2.26743C2.79931 1.34472 3.91076 0.883369 5.21094 0.883369C6.51112 0.883369 7.61208 1.34472 8.51382 2.26743C9.43653 3.16917 9.89788 4.27013 9.89788 5.57031C9.89788 6.2204 9.73012 6.96486 9.39458 7.80369C9.08002 8.64251 8.69207 9.42891 8.23071 10.1629C7.76936 10.8969 7.308 11.5889 6.84665 12.239C6.40627 12.8681 6.02879 13.3714 5.71423 13.7489L5.21094 14.2836C5.08511 14.1368 4.91735 13.9481 4.70764 13.7174C4.49793 13.4658 4.12046 12.9834 3.57523 12.2704C3.02999 11.5365 2.54766 10.8339 2.12825 10.1629C1.72981 9.47086 1.36282 8.69494 1.02729 7.83514C0.69176 6.97535 0.523994 6.2204 0.523994 5.57031C0.523994 4.27013 0.974864 3.16917 1.8766 2.26743Z" fill="#65665C"/>
</svg>
