<svg width="19" height="17" viewBox="0 0 19 17" fill="none" xmlns="http://www.w3.org/2000/svg">
<path fill-rule="evenodd" clip-rule="evenodd" d="M14.1424 11.5231L17.9424 15.1051C18.112 15.2828 18.1037 15.5549 17.9234 15.7231L17.2584 16.3499C17.1691 16.4347 17.0477 16.4824 16.9211 16.4824C16.7945 16.4824 16.6731 16.4347 16.5839 16.3499L12.7839 12.7678C12.6788 12.6687 12.5834 12.5608 12.4989 12.4455L11.7864 11.55C10.6075 12.4374 9.14345 12.9205 7.63485 12.9201C4.52608 12.9303 1.82467 10.9087 1.12995 8.05234C0.435214 5.19594 1.93258 2.26697 4.73555 0.999474C7.53852 -0.268017 10.8991 0.464238 12.8276 2.76273C14.7561 5.06122 14.7379 8.31253 12.7839 10.5918L13.7339 11.2096C13.8822 11.2992 14.0192 11.4043 14.1424 11.5231ZM2.88486 6.65146C2.88486 9.12433 5.0115 11.129 7.63485 11.129C8.89465 11.129 10.1029 10.6573 10.9936 9.81761C11.8844 8.97791 12.3849 7.83901 12.3849 6.65146C12.3849 4.17852 10.2582 2.17383 7.63485 2.17383C5.0115 2.17383 2.88486 4.17852 2.88486 6.65146Z" fill="#2A2C1F"/>
</svg>
