<svg width="12" height="11" viewBox="0 0 12 11" fill="none" xmlns="http://www.w3.org/2000/svg">
<path d="M2.64938 8.94929H6.51846L2.64938 5.0802V8.94929ZM9.82134 9.38967L11.3941 10.9625H1.9888C1.6323 10.9625 1.31774 10.8262 1.04512 10.5535C0.772502 10.2809 0.636192 9.96636 0.636192 9.60986V0.204521L2.20899 1.77732L1.51696 2.50081L1.9888 2.97265L2.68083 2.24916L4.00198 3.57031L3.2785 4.26234L3.75034 4.76564L4.47382 4.04215L5.79498 5.3633L5.07149 6.05534L5.54333 6.52718L6.26682 5.83514L7.55651 7.12484L6.83302 7.84833L7.33632 8.32017L8.02835 7.59668L9.3495 8.91783L8.62601 9.60986L9.09785 10.0817L9.82134 9.38967Z" fill="#65665C"/>
</svg>
