<svg width="18" height="16" viewBox="0 0 18 16" fill="none" xmlns="http://www.w3.org/2000/svg">
<path d="M17.9737 2.56701C17.5093 3.18653 16.9479 3.72694 16.3112 4.16737C16.3112 4.3292 16.3112 4.49103 16.3112 4.66186C16.3163 7.60071 15.1424 10.4187 13.0527 12.4841C10.9629 14.5495 8.13208 15.6895 5.19491 15.6485C3.49685 15.6542 1.82053 15.2665 0.297277 14.5157C0.215137 14.4798 0.162167 14.3986 0.162477 14.3089V14.21C0.162477 14.0809 0.267087 13.9763 0.396127 13.9763C2.06528 13.9212 3.67488 13.3425 4.9972 12.322C3.48639 12.2915 2.12705 11.3965 1.50146 10.0203C1.46987 9.94521 1.4797 9.85891 1.52743 9.79281C1.57515 9.72671 1.65386 9.69031 1.73511 9.69671C2.19428 9.74281 2.65804 9.70011 3.10106 9.57081C1.43325 9.22461 0.180067 7.84001 0.000716556 6.14531C-0.00565344 6.06401 0.0307767 5.98531 0.0968567 5.93751C0.162927 5.88981 0.249097 5.87991 0.324237 5.91161C0.771797 6.10911 1.25495 6.21311 1.7441 6.21721C0.282697 5.25807 -0.348533 3.43366 0.207407 1.77583C0.264797 1.61474 0.402667 1.49573 0.570357 1.46255C0.738037 1.42936 0.910817 1.48689 1.02518 1.614C2.99725 3.71286 5.7069 4.96357 8.58278 5.1024C8.50918 4.80846 8.47298 4.50637 8.47498 4.20333C8.50188 2.61433 9.48508 1.19882 10.9643 0.619481C12.4434 0.0401511 14.1258 0.411642 15.2239 1.56005C15.9723 1.41746 16.6959 1.16606 17.3716 0.813821C17.4211 0.782921 17.4839 0.782921 17.5334 0.813821C17.5643 0.863341 17.5643 0.926131 17.5334 0.975651C17.2061 1.72513 16.6532 2.35373 15.9518 2.7738C16.566 2.70257 17.1694 2.55768 17.7491 2.34225C17.7979 2.30903 17.862 2.30903 17.9108 2.34225C17.9517 2.36095 17.9823 2.39672 17.9944 2.44003C18.0065 2.48334 17.9989 2.52979 17.9737 2.56701Z" fill="#2A2C1F"/>
</svg>
