<svg width="120" height="29" viewBox="0 0 120 29" fill="none" xmlns="http://www.w3.org/2000/svg">
<g clip-path="url(#clip0_5_72)">
<path d="M34.2281 9.2316H37.2375V21.3649H34.2281V9.2316ZM38.4375 16.8009C38.4375 13.7956 40.3125 11.9943 43.125 11.9943C45.9375 11.9943 47.8125 13.7956 47.8125 16.8009C47.8125 19.8063 46.0032 21.6263 43.125 21.6263C40.2469 21.6263 38.4375 19.8716 38.4375 16.8009ZM44.8313 16.8009C44.8313 15.1489 44.1844 14.1783 43.1532 14.1783C42.1219 14.1783 41.4844 15.1116 41.4844 16.8009C41.4844 18.4903 42.1219 19.4143 43.1532 19.4143C44.1844 19.4143 44.85 18.4903 44.85 16.8103L44.8313 16.8009ZM49.0125 21.9903H51.9188C52.0511 22.3017 52.2822 22.5617 52.5767 22.7301C52.8713 22.8987 53.2131 22.9666 53.55 22.9236C54.7032 22.9236 55.3032 22.3076 55.3032 21.3929V19.7129H55.3125C55.0642 20.2361 54.6626 20.672 54.1606 20.9636C53.6586 21.2552 53.0797 21.3886 52.5 21.3463C50.2969 21.3463 48.8344 19.6756 48.8344 16.8009C48.8344 13.9263 50.2313 12.1343 52.5844 12.1343C53.1789 12.1026 53.7687 12.2552 54.2723 12.5712C54.776 12.8871 55.1689 13.3508 55.3969 13.8983H55.3125V12.2089H58.2938V21.2996C58.2938 23.4929 56.3438 24.8649 53.475 24.8649C50.8688 24.8556 49.2 23.6703 49.0313 21.9996L49.0125 21.9903ZM55.3125 16.8009C55.3125 15.3356 54.6375 14.4116 53.5688 14.4116C52.5 14.4116 51.8438 15.3449 51.8438 16.8009C51.8438 18.2569 52.4907 19.1156 53.5688 19.1156C54.6469 19.1156 55.3125 18.3223 55.3125 16.8009ZM59.4844 16.8009C59.4844 13.7956 61.3594 11.9943 64.1719 11.9943C66.9844 11.9943 68.8594 13.7956 68.8594 16.8009C68.8594 19.8063 67.0406 21.6263 64.1719 21.6263C61.3032 21.6263 59.5032 19.8716 59.5032 16.8009H59.4844ZM65.8781 16.8009C65.8781 15.1489 65.2219 14.1783 64.2 14.1783C63.1782 14.1783 62.5313 15.1116 62.5313 16.8009C62.5313 18.4903 63.1688 19.4143 64.2 19.4143C65.2313 19.4143 65.8969 18.4903 65.8969 16.8103L65.8781 16.8009ZM70.0782 9.99694C70.065 9.69175 70.144 9.38965 70.3047 9.12949C70.4655 8.86933 70.7008 8.66301 70.9804 8.53708C71.26 8.41114 71.5709 8.37136 71.8734 8.42283C72.1758 8.4743 72.4558 8.61469 72.6775 8.82592C72.8991 9.03716 73.0522 9.30958 73.1171 9.60814C73.1818 9.9067 73.1555 10.2178 73.0413 10.5012C72.9271 10.7848 72.7303 11.0278 72.4763 11.1991C72.2222 11.3703 71.9225 11.462 71.6157 11.4623C71.4196 11.4672 71.2244 11.4333 71.0416 11.3627C70.8588 11.2919 70.6918 11.1857 70.5506 11.0503C70.4093 10.9149 70.2964 10.7529 70.2186 10.5736C70.1407 10.3944 70.0993 10.2015 70.0969 10.0063L70.0782 9.99694ZM70.0782 12.1996H73.125V21.4023H70.125L70.0782 12.1996ZM84.0844 16.8009C84.0844 19.7969 82.7344 21.5329 80.4375 21.5329C79.8495 21.5691 79.2645 21.4246 78.7616 21.1192C78.2586 20.8137 77.8619 20.362 77.625 19.8249H77.5688V24.3609H74.5594V12.2276H77.55V13.8703H77.6063C77.835 13.3227 78.2278 12.8585 78.7311 12.5412C79.2344 12.2239 79.8237 12.0688 80.4188 12.0969C82.7813 12.0783 84.1407 13.8049 84.1407 16.8103L84.0844 16.8009ZM81.0188 16.8009C81.0188 15.3449 80.3344 14.4023 79.275 14.4023C78.2157 14.4023 77.55 15.3356 77.5407 16.8009C77.5313 18.2663 78.2157 19.1903 79.275 19.1903C80.3344 19.1903 81.075 18.3223 81.075 16.8103L81.0188 16.8009ZM89.2219 11.9849C91.7438 11.9849 93.3094 13.1703 93.3282 15.0743H90.5813C90.5813 14.4116 90.0282 14.0009 89.2032 14.0009C88.3782 14.0009 87.9844 14.3183 87.9844 14.7943C87.9844 15.2703 88.3313 15.4196 89.025 15.5596L90.9563 15.9516C92.8313 16.3436 93.5813 17.0903 93.5813 18.4809C93.5813 20.3476 91.8469 21.6169 89.2688 21.6169C86.6907 21.6169 85.0125 20.3849 84.8907 18.5089H87.8063C87.8907 19.1903 88.4344 19.5916 89.3157 19.5916C90.1969 19.5916 90.6094 19.3116 90.6094 18.8169C90.6094 18.3223 90.3282 18.2383 89.6063 18.0889L87.8625 17.7249C86.0532 17.3423 85.1063 16.3996 85.1063 14.9903C85.1625 13.1609 86.7375 11.9943 89.2782 11.9943L89.2219 11.9849ZM103.659 21.3929H100.744V19.6663H100.688C100.524 20.2422 100.169 20.7456 99.6797 21.0933C99.1903 21.4412 98.5969 21.6126 97.9969 21.5796C97.5441 21.5943 97.0922 21.5134 96.6732 21.3423C96.2541 21.1712 95.8753 20.9137 95.5631 20.5867C95.25 20.2597 95.011 19.8706 94.86 19.445C94.7091 19.0194 94.65 18.5667 94.6875 18.1169V12.2089H97.6969V17.4729C97.6969 18.5556 98.2688 19.1436 99.2063 19.1436C99.4266 19.1419 99.6432 19.0933 99.8428 19.0011C100.043 18.9088 100.22 18.7749 100.362 18.6086C100.506 18.4423 100.612 18.2473 100.673 18.037C100.733 17.8265 100.748 17.6056 100.716 17.3889V12.2089H103.716L103.659 21.3929ZM105.113 12.1996H108.038V13.9729H108.103C108.264 13.4048 108.611 12.9061 109.088 12.5548C109.565 12.2036 110.145 12.0196 110.738 12.0316C111.333 11.9801 111.926 12.1515 112.401 12.5122C112.876 12.8729 113.198 13.3972 113.306 13.9823H113.438C113.625 13.394 114.002 12.8838 114.511 12.5311C115.019 12.1783 115.631 12.0028 116.25 12.0316C116.662 12.016 117.072 12.0871 117.454 12.2403C117.836 12.3934 118.181 12.6251 118.467 12.9203C118.753 13.2155 118.973 13.5674 119.112 13.9531C119.253 14.3387 119.309 14.7494 119.278 15.1583V21.4023H116.25V15.9236C116.25 14.9903 115.809 14.4676 114.956 14.4676C114.767 14.4645 114.579 14.5022 114.406 14.578C114.233 14.6539 114.079 14.7662 113.953 14.9071C113.828 15.0481 113.734 15.2144 113.678 15.3947C113.624 15.575 113.609 15.7649 113.634 15.9516V21.4023H110.766V15.8956C110.766 14.9623 110.306 14.4676 109.481 14.4676C109.29 14.4661 109.101 14.5053 108.926 14.5826C108.751 14.66 108.595 14.7736 108.468 14.9159C108.341 15.0582 108.247 15.2259 108.19 15.4078C108.133 15.5897 108.116 15.7815 108.141 15.9703V21.4023H105.131L105.113 12.1996Z" fill="#737680"/>
<path d="M28.275 10.0249C28.2751 8.16727 27.7117 6.35292 26.6585 4.81951C25.6053 3.2861 24.1114 2.10511 22.3726 1.43124C20.6338 0.757366 18.7311 0.622031 16.9137 1.04296C15.0963 1.46388 13.449 2.42144 12.1875 3.79021H0.487549V28.3742H25.1907V16.8849C26.1602 16.0215 26.9361 14.9643 27.4676 13.7823C27.999 12.6003 28.2742 11.3199 28.275 10.0249ZM23.5219 10.0249C23.5238 10.915 23.2603 11.7857 22.765 12.5267C22.2695 13.2678 21.5645 13.8458 20.7389 14.1878C19.9134 14.5296 19.0046 14.6201 18.1273 14.4476C17.2502 14.275 16.4442 13.8474 15.8112 13.2186C15.1783 12.5898 14.7471 11.7883 14.572 10.9153C14.3968 10.0424 14.4858 9.13738 14.8275 8.31482C15.1692 7.49224 15.7484 6.7891 16.4917 6.29436C17.235 5.79963 18.1091 5.53556 19.0032 5.53555C20.2 5.53555 21.3479 6.00823 22.1951 6.84988C23.0423 7.69152 23.5195 8.83338 23.5219 10.0249ZM20.4375 23.6422H5.24067V8.52221H9.8719C9.78247 9.01825 9.7354 9.52094 9.73128 10.0249C9.73381 12.4723 10.7114 14.8187 12.4497 16.5492C14.188 18.2798 16.5448 19.2531 19.0032 19.2556C19.4838 19.2531 19.9634 19.2125 20.4375 19.1342V23.6422Z" fill="#737680"/>
</g>
<defs>
<clipPath id="clip0_5_72">
<rect width="120" height="28" fill="white" transform="translate(0 0.588928)"/>
</clipPath>
</defs>
</svg>
