<svg width="120" height="29" viewBox="0 0 120 29" fill="none" xmlns="http://www.w3.org/2000/svg">
<g clip-path="url(#clip0_5_59)">
<path d="M28.9107 7.35559H31.6799V20.8423H28.9107V7.35559Z" fill="#737680"/>
<path d="M33.2308 16.2223C33.2308 15.252 33.5157 14.3034 34.0495 13.497C34.5832 12.6906 35.3417 12.0627 36.2289 11.6926C37.116 11.3226 38.0918 11.2272 39.0326 11.4186C39.9734 11.6099 40.8369 12.0794 41.5135 12.7675C42.1901 13.4555 42.6495 14.3313 42.8333 15.2836C43.0172 16.2359 42.9173 17.2221 42.5462 18.1169C42.1751 19.0117 41.5497 19.7751 40.7492 20.3101C39.9486 20.8452 39.0089 21.1278 38.0493 21.1223C37.4128 21.1273 36.7817 21.0038 36.193 20.7589C35.6043 20.5141 35.0699 20.1529 34.6211 19.6965C34.1723 19.2402 33.8182 18.6978 33.5794 18.1012C33.3407 17.5046 33.2221 16.8658 33.2308 16.2223ZM40.1723 16.2223C40.1614 15.804 40.0288 15.3982 39.791 15.0556C39.5532 14.7132 39.2208 14.4491 38.8354 14.2966C38.4501 14.1441 38.0288 14.1099 37.6242 14.1982C37.2197 14.2866 36.8499 14.4935 36.5611 14.7932C36.2722 15.093 36.0772 15.4721 36.0004 15.8833C35.9236 16.2944 35.9684 16.7195 36.1292 17.105C36.29 17.4906 36.5596 17.8197 36.9044 18.0512C37.2492 18.2826 37.6538 18.4061 38.0677 18.4063C38.3494 18.4118 38.6294 18.3585 38.8899 18.2498C39.1504 18.141 39.3859 17.9791 39.5817 17.774C39.7774 17.5691 39.9293 17.3255 40.0278 17.0585C40.1262 16.7915 40.1691 16.5068 40.1539 16.2223H40.1723Z" fill="#737680"/>
<path d="M53.8246 11.6023V20.3849C53.8246 23.4836 51.4246 24.7996 48.9969 24.7996C48.1407 24.8706 47.2817 24.6986 46.5169 24.3029C45.752 23.9071 45.1116 23.3034 44.6677 22.5596L47.0031 21.1969C47.1924 21.5827 47.4934 21.901 47.8661 22.1094C48.2388 22.3179 48.6654 22.4065 49.0892 22.3636C49.3592 22.3972 49.6332 22.3701 49.8917 22.2842C50.15 22.1983 50.3864 22.0557 50.5841 21.8667C50.7816 21.6776 50.9354 21.4468 51.0344 21.1906C51.1335 20.9345 51.1753 20.6593 51.1569 20.3849V19.5356C50.8347 19.9307 50.4258 20.2443 49.9627 20.4517C49.4996 20.659 48.9952 20.7544 48.4892 20.7303C47.2651 20.7303 46.0913 20.2386 45.2257 19.3634C44.3601 18.4882 43.8738 17.3013 43.8738 16.0636C43.8738 14.8259 44.3601 13.6389 45.2257 12.7638C46.0913 11.8886 47.2651 11.3969 48.4892 11.3969C48.9952 11.3727 49.4996 11.4681 49.9627 11.6755C50.4258 11.8828 50.8347 12.1965 51.1569 12.5916V11.6583L53.8246 11.6023ZM51.1569 16.0356C51.1754 15.5891 51.0613 15.1472 50.8293 14.7667C50.5974 14.3863 50.2581 14.0847 49.8553 13.9008C49.4525 13.7168 49.0044 13.659 48.5687 13.7345C48.1331 13.8102 47.7298 14.0158 47.4106 14.325C47.0915 14.6342 46.8712 15.0329 46.7779 15.4698C46.6847 15.9066 46.7228 16.3617 46.8875 16.7765C47.0521 17.1912 47.3357 17.5467 47.7017 17.7973C48.0677 18.0478 48.4996 18.1819 48.9415 18.1823C49.23 18.2033 49.5196 18.1628 49.7916 18.0637C50.0636 17.9645 50.312 17.8087 50.5208 17.6064C50.7295 17.4041 50.894 17.1598 51.0036 16.8892C51.1133 16.6186 51.1654 16.3278 51.1569 16.0356Z" fill="#737680"/>
<path d="M55.3846 16.2223C55.3846 15.2527 55.669 14.305 56.202 13.499C56.7349 12.693 57.4923 12.0649 58.3783 11.6944C59.2644 11.3238 60.2392 11.2273 61.1796 11.4171C62.1199 11.6069 62.9834 12.0745 63.6607 12.7607C64.3382 13.447 64.799 14.321 64.9849 15.2721C65.1709 16.2232 65.0736 17.2087 64.7054 18.1039C64.3372 18.9991 63.7145 19.7637 62.9164 20.301C62.1183 20.8383 61.1804 21.1241 60.2215 21.1223C59.5838 21.1285 58.9513 21.006 58.3611 20.7618C57.7708 20.5177 57.2347 20.1568 56.7842 19.7004C56.3337 19.244 55.9779 18.7013 55.7375 18.1041C55.4972 17.5068 55.3772 16.867 55.3846 16.2223ZM62.3261 16.2223C62.3152 15.8036 62.1823 15.3974 61.9442 15.0547C61.7059 14.7121 61.3731 14.448 60.9871 14.2958C60.6012 14.1436 60.1794 14.1099 59.7747 14.199C59.3698 14.288 59.0001 14.496 58.7116 14.7966C58.4232 15.0972 58.2289 15.4773 58.1531 15.8891C58.0774 16.3009 58.1235 16.7261 58.2856 17.1115C58.4478 17.4969 58.7189 17.8254 59.0649 18.0557C59.411 18.286 59.8165 18.408 60.2308 18.4063C60.5125 18.4118 60.7924 18.3586 61.0529 18.2498C61.3134 18.141 61.5489 17.9791 61.7447 17.7741C61.9405 17.5691 62.0923 17.3255 62.1908 17.0585C62.2892 16.7915 62.3321 16.5069 62.3169 16.2223H62.3261Z" fill="#737680"/>
<path d="M66.3416 9.12893C66.3416 8.80035 66.4379 8.47914 66.6185 8.20593C66.799 7.93273 67.0556 7.71979 67.3558 7.59405C67.6561 7.46831 67.9865 7.43541 68.3052 7.49951C68.6239 7.56361 68.9167 7.72184 69.1464 7.95419C69.3763 8.18652 69.5327 8.48255 69.5961 8.80481C69.6595 9.12708 69.627 9.46112 69.5026 9.76468C69.3783 10.0682 69.1676 10.3277 68.8975 10.5103C68.6273 10.6928 68.3096 10.7903 67.9846 10.7903C67.5503 10.7854 67.1352 10.6088 66.8281 10.2983C66.521 9.98778 66.3464 9.56803 66.3416 9.12893ZM66.6092 11.6023H69.3785V20.8423H66.6092V11.6023Z" fill="#737680"/>
<path d="M81.2308 16.2222C81.2618 16.8367 81.1723 17.4513 80.9675 18.0308C80.7627 18.6102 80.4466 19.1429 80.0373 19.5984C79.6281 20.0538 79.1339 20.4229 78.583 20.6844C78.0322 20.9459 77.4356 21.0947 76.8277 21.1222C76.3118 21.157 75.7948 21.0733 75.3153 20.8778C74.8358 20.6823 74.4062 20.3798 74.0585 19.9929V24.5569H71.2892V11.6022H74.0585V12.4702C74.4067 12.0845 74.8366 11.7833 75.3162 11.5894C75.7957 11.3954 76.3124 11.3137 76.8277 11.3502C77.4332 11.3778 78.0273 11.5257 78.5764 11.7855C79.1253 12.0452 79.6183 12.4117 80.0272 12.8642C80.436 13.3166 80.7528 13.846 80.9593 14.4221C81.1658 14.9984 81.258 15.61 81.2308 16.2222ZM78.4616 16.2222C78.4507 15.7887 78.3134 15.3681 78.0671 15.0132C77.8208 14.6582 77.4764 14.3846 77.0769 14.2268C76.6775 14.0689 76.2408 14.0337 75.8217 14.1257C75.4027 14.2176 75.0197 14.4327 74.721 14.7437C74.4222 15.0548 74.2208 15.4481 74.1422 15.8744C74.0636 16.3007 74.1112 16.741 74.279 17.14C74.4467 17.5391 74.7273 17.8792 75.0855 18.1177C75.4436 18.3562 75.8635 18.4826 76.2923 18.4809C76.586 18.4935 76.8791 18.4432 77.1523 18.3333C77.4254 18.2233 77.6725 18.0561 77.8773 17.8429C78.0822 17.6296 78.2401 17.375 78.3408 17.0957C78.4414 16.8164 78.4826 16.5188 78.4616 16.2222Z" fill="#737680"/>
<path d="M89.6585 18.0703C89.6585 20.1983 87.8123 21.1036 85.8554 21.1036C85.0572 21.1762 84.2559 21.0051 83.5549 20.6125C82.8539 20.2198 82.2855 19.6236 81.9231 18.9009L84.3046 17.5383C84.399 17.8713 84.6035 18.1614 84.8841 18.3602C85.1648 18.559 85.5044 18.6543 85.8462 18.6303C86.5016 18.6303 86.8339 18.4249 86.8339 18.0516C86.8339 17.0343 82.3385 17.5756 82.3385 14.3743C82.3385 12.3583 84.0185 11.3503 85.92 11.3503C86.6428 11.3175 87.3609 11.4833 87.998 11.8301C88.6351 12.1768 89.1674 12.6915 89.5385 13.3196L87.1569 14.5889C87.0517 14.3481 86.8798 14.1433 86.662 13.9992C86.444 13.8551 86.1896 13.7779 85.9292 13.7769C85.4492 13.7769 85.1631 13.9636 85.1631 14.2903C85.1631 15.3543 89.6585 14.6543 89.6585 18.0703Z" fill="#737680"/>
<path d="M99.6923 11.6022V20.8422H96.9231V19.9742C96.6083 20.3584 96.2086 20.6625 95.7572 20.8619C95.3049 21.0613 94.8129 21.1505 94.32 21.1222C92.4738 21.1222 90.8954 19.7876 90.8954 17.2956V11.6022H93.6646V16.8756C93.6425 17.096 93.6683 17.3186 93.7403 17.5281C93.8123 17.7374 93.9277 17.9286 94.0791 18.0883C94.2314 18.248 94.416 18.3725 94.62 18.4532C94.824 18.5339 95.0428 18.5688 95.2615 18.5556C96.2585 18.5556 96.96 17.9582 96.96 16.6889V11.6022H99.6923Z" fill="#737680"/>
<path d="M115.385 15.1676V20.8423H112.615V15.4103C112.615 14.4769 112.182 13.8983 111.305 13.8983C110.428 13.8983 109.874 14.5423 109.874 15.6343V20.8423H107.105V15.4103C107.105 14.4769 106.671 13.8983 105.794 13.8983C104.917 13.8983 104.363 14.5423 104.363 15.6343V20.8423H101.594V11.6023H104.363V12.4516C104.65 12.0764 105.024 11.7792 105.453 11.587C105.882 11.3947 106.351 11.3133 106.818 11.3503C107.286 11.3256 107.754 11.4245 108.173 11.6372C108.592 11.8499 108.949 12.1692 109.209 12.5636C109.514 12.1515 109.916 11.824 110.38 11.6119C110.842 11.3996 111.352 11.3097 111.858 11.3503C114.018 11.3503 115.385 12.8623 115.385 15.1676Z" fill="#737680"/>
<path d="M12.4155 4.92894V0.96228H0.0462036V28.2156H12.4155V24.2489C9.88164 24.2489 7.45154 23.2312 5.65984 21.4196C3.86815 19.608 2.86159 17.1509 2.86159 14.5889C2.86159 12.0269 3.86815 9.5699 5.65984 7.7583C7.45154 5.9467 9.88164 4.92894 12.4155 4.92894Z" fill="#737680"/>
<path d="M12.4154 4.92896V24.2489C14.9492 24.2489 17.3793 23.2312 19.1709 21.4196C20.9626 19.608 21.9692 17.1509 21.9692 14.5889C21.9692 12.0269 20.9626 9.56991 19.1709 7.75831C17.3793 5.94671 14.9492 4.92896 12.4154 4.92896Z" fill="#737680"/>
<path d="M117.711 11.5463C118.832 11.5463 119.742 10.627 119.742 9.49297C119.742 8.35894 118.832 7.43964 117.711 7.43964C116.589 7.43964 115.68 8.35894 115.68 9.49297C115.68 10.627 116.589 11.5463 117.711 11.5463Z" fill="#737680"/>
</g>
<defs>
<clipPath id="clip0_5_59">
<rect width="120" height="28" fill="white" transform="translate(0 0.588928)"/>
</clipPath>
</defs>
</svg>
