<svg width="120" height="26" viewBox="0 0 120 26" fill="none" xmlns="http://www.w3.org/2000/svg">
<path d="M18.0167 11.6345C17.6823 11.9749 17.4263 12.3858 17.2667 12.8378C17.1072 13.2898 17.0482 13.7719 17.0938 14.2497L17.0779 14.2336C17.1248 14.796 17.0499 15.3619 16.8584 15.892C16.6668 16.422 16.3632 16.9033 15.9689 17.3024C15.5745 17.7014 15.0988 18.0087 14.575 18.2025C14.0512 18.3963 13.4919 18.4722 12.9361 18.4247L12.952 18.4407C12.2873 18.3781 11.6196 18.5245 11.04 18.8599C10.4604 19.1954 9.99728 19.7035 9.71352 20.3151C9.42984 20.9267 9.33949 21.612 9.45472 22.2774C9.56996 22.9429 9.88522 23.5562 10.3575 24.0337C10.8299 24.5112 11.4362 24.8296 12.0939 24.9456C12.7517 25.0617 13.4288 24.9697 14.0329 24.682C14.637 24.3944 15.1388 23.9252 15.4698 23.3384C15.8008 22.7516 15.9448 22.0759 15.8823 21.4032L15.8991 21.4193C15.8522 20.857 15.9271 20.291 16.1187 19.761C16.3103 19.2309 16.6138 18.7496 17.0082 18.3505C17.4025 17.9514 17.8782 17.6443 18.402 17.4505C18.9258 17.2566 19.4851 17.1807 20.0408 17.2282L20.0241 17.2122C20.5672 17.2616 21.1137 17.1715 21.6132 16.9502C22.1127 16.7289 22.5488 16.3838 22.8813 15.9464C23.2139 15.5092 23.4319 14.994 23.5153 14.4488C23.5987 13.9036 23.5447 13.3459 23.3582 12.8274C23.1719 12.3088 22.8593 11.8463 22.4492 11.4827C22.0392 11.119 21.545 10.8661 21.0126 10.7471C20.4802 10.6281 19.9268 10.6471 19.4035 10.8022C18.8803 10.9573 18.4042 11.2436 18.0194 11.6345H18.0167Z" fill="#737680"/>
<path d="M11.5077 16.3354L11.4909 16.3193C11.9633 16.3674 12.4403 16.3088 12.8875 16.1475C13.3347 15.9863 13.7409 15.7265 14.0767 15.387C14.4126 15.0474 14.6696 14.6365 14.8293 14.1841C14.989 13.7317 15.0473 13.2491 15 12.7711L15.0168 12.7872C14.9699 12.2248 15.0449 11.6589 15.2364 11.1288C15.428 10.5988 15.7315 10.1174 16.1259 9.71833C16.5202 9.31928 16.9959 9.01212 17.5198 8.81828C18.0435 8.62445 18.6029 8.54862 19.1586 8.59609L19.1418 8.58002C19.8067 8.6432 20.4746 8.49731 21.0545 8.16225C21.6344 7.8272 22.0979 7.31928 22.3821 6.70779C22.6663 6.09631 22.7571 5.41101 22.6421 4.74538C22.5272 4.07975 22.2122 3.46619 21.7401 2.98839C21.2678 2.51059 20.6615 2.19181 20.0037 2.07554C19.3459 1.95926 18.6687 2.05115 18.0644 2.33867C17.4601 2.62617 16.9582 3.09533 16.627 3.68212C16.2959 4.26891 16.1518 4.94477 16.2142 5.61752L16.1983 5.60056C16.2454 6.16296 16.1706 6.72898 15.979 7.25909C15.7875 7.78919 15.484 8.27061 15.0896 8.66971C14.6952 9.06882 14.2194 9.37599 13.6956 9.56976C13.1717 9.76351 12.6123 9.83922 12.0565 9.79163L12.0724 9.80859C11.6001 9.76047 11.1231 9.81913 10.6758 9.98038C10.2286 10.1415 9.82248 10.4014 9.48665 10.7409C9.15083 11.0805 8.8938 11.4914 8.73408 11.9438C8.57439 12.3962 8.51606 12.8788 8.5633 13.3568L8.54742 13.3407C8.59417 13.9031 8.51913 14.469 8.32753 14.999C8.13591 15.5289 7.83235 16.0102 7.43802 16.4092C7.04367 16.8082 6.56805 17.1154 6.04432 17.3093C5.52059 17.5031 4.96137 17.5791 4.40565 17.5318L4.42153 17.5479C3.7567 17.4847 3.08878 17.6306 2.5089 17.9656C1.92901 18.3007 1.46538 18.8086 1.18125 19.4201C0.897116 20.0316 0.806308 20.7169 0.921213 21.3825C1.03612 22.0481 1.35116 22.6617 1.82333 23.1395C2.29551 23.6173 2.90185 23.9361 3.55965 24.0523C4.21745 24.1686 4.89469 24.0767 5.49898 23.7892C6.10328 23.5017 6.60522 23.0326 6.93633 22.4458C7.26744 21.859 7.41162 21.1831 7.34918 20.5104L7.36595 20.5265C7.31903 19.964 7.39397 19.3981 7.58552 18.8681C7.77707 18.3381 8.08063 17.8567 8.475 17.4576C8.86936 17.0586 9.34504 16.7514 9.86889 16.5576C10.3927 16.3638 10.952 16.2879 11.5077 16.3354Z" fill="#737680"/>
<path d="M5.59415 14.5434C5.92858 14.203 6.18463 13.7921 6.34401 13.3401C6.5034 12.888 6.5622 12.4059 6.51621 11.9282L6.53298 11.9443C6.48603 11.3818 6.56099 10.8156 6.75265 10.2854C6.9443 9.75525 7.24803 9.27382 7.6426 8.87472C8.03717 8.47562 8.51308 8.16849 9.03707 7.97478C9.5611 7.78107 10.1206 7.70544 10.6765 7.75319L10.6597 7.73712C11.3243 7.80013 11.992 7.65416 12.5716 7.31912C13.1512 6.9841 13.6146 6.4763 13.8986 5.86501C14.1825 5.2537 14.2732 4.56866 14.1583 3.90327C14.0435 3.23789 13.7285 2.62457 13.2565 2.14694C12.7845 1.66932 12.1784 1.35064 11.5208 1.23437C10.8633 1.1181 10.1863 1.2099 9.58219 1.49724C8.97804 1.78458 8.47626 2.25348 8.14517 2.84C7.81408 3.42652 7.66983 4.10211 7.7321 4.77462L7.71621 4.75855C7.76312 5.32092 7.68819 5.88687 7.49663 6.41691C7.30508 6.94694 7.00152 7.42829 6.60715 7.82736C6.21278 8.22644 5.73709 8.53361 5.21329 8.72744C4.68949 8.92127 4.1302 8.9971 3.57445 8.94962L3.59033 8.96569C3.0473 8.91642 2.50077 9.00664 2.00137 9.228C1.50198 9.44936 1.06588 9.79471 0.733489 10.232C0.401097 10.6693 0.183167 11.1844 0.0998949 11.7296C0.0166225 12.2749 0.070701 12.8326 0.25712 13.351C0.443539 13.8694 0.756267 14.3319 1.16632 14.6954C1.57638 15.0591 2.0705 15.312 2.60289 15.431C3.13528 15.5498 3.68871 15.5308 4.21192 15.3757C4.73512 15.2205 5.21116 14.9343 5.59591 14.5434H5.59415Z" fill="#737680"/>
<path d="M32.9268 5.63806H35.5473V18.5425H32.9268V5.63806Z" fill="#737680"/>
<path d="M37.0315 14.1237C37.0279 13.1964 37.2962 12.2887 37.8028 11.5159C38.3092 10.743 39.031 10.1396 39.8766 9.78214C40.7223 9.42472 41.6537 9.32927 42.553 9.50792C43.4523 9.68651 44.279 10.1312 44.9283 10.7857C45.5776 11.4401 46.0204 12.2748 46.2006 13.1841C46.3807 14.0934 46.2901 15.0363 45.9403 15.8935C45.5904 16.7505 44.997 17.4834 44.2353 17.9989C43.4735 18.5145 42.5777 18.7898 41.6612 18.7898C41.0529 18.7969 40.4492 18.6811 39.8856 18.4493C39.322 18.2175 38.8097 17.8744 38.3787 17.4399C37.9476 17.0055 37.6064 16.4885 37.3752 15.9191C37.1438 15.3497 37.027 14.7394 37.0315 14.1237ZM43.6703 14.1237C43.6594 13.724 43.5322 13.3364 43.3048 13.0094C43.0774 12.6824 42.7597 12.4304 42.3916 12.2852C42.0234 12.1398 41.6211 12.1075 41.2349 12.1923C40.8487 12.2771 40.4958 12.4752 40.2202 12.7619C39.9448 13.0485 39.7588 13.411 39.6857 13.804C39.6126 14.197 39.6557 14.603 39.8095 14.9714C39.9633 15.3397 40.2209 15.6541 40.5502 15.8751C40.8796 16.0961 41.266 16.2139 41.6612 16.2139C41.9318 16.2212 42.201 16.1717 42.4518 16.0685C42.7026 15.9653 42.9296 15.8106 43.1183 15.6143C43.3071 15.4179 43.4536 15.184 43.5486 14.9275C43.6436 14.671 43.6851 14.3973 43.6703 14.1237Z" fill="#737680"/>
<path d="M56.7353 9.70412V18.097C56.7353 21.0666 54.4465 22.322 52.1232 22.322C51.3052 22.3839 50.4862 22.2167 49.7559 21.8388C49.0256 21.4607 48.4123 20.8865 47.9832 20.1791L50.2191 18.8711C50.3995 19.2398 50.6868 19.544 51.0427 19.7431C51.3986 19.9421 51.806 20.0263 52.2106 19.9845C52.4691 20.0207 52.7324 19.9977 52.9809 19.9171C53.2294 19.8364 53.4569 19.7004 53.6464 19.5188C53.836 19.3372 53.9827 19.1148 54.0758 18.8681C54.169 18.6214 54.206 18.3566 54.1844 18.0934V17.2854C53.8775 17.6653 53.4869 17.9672 53.044 18.1667C52.6009 18.3663 52.1179 18.458 51.6335 18.4345C50.481 18.3977 49.3879 17.9086 48.5854 17.0706C47.783 16.2326 47.3344 15.1116 47.3344 13.9447C47.3344 12.778 47.783 11.6569 48.5854 10.8189C49.3879 9.98091 50.481 9.4918 51.6335 9.45503C52.1179 9.4315 52.6009 9.52323 53.044 9.72279C53.4869 9.92234 53.8775 10.2242 54.1844 10.6041V9.70234L56.7353 9.70412ZM54.1853 13.9461C54.2029 13.5188 54.0937 13.0958 53.8718 12.7318C53.6499 12.3677 53.3254 12.0792 52.94 11.9034C52.5547 11.7275 52.1261 11.6724 51.7096 11.7451C51.293 11.8178 50.9075 12.0149 50.6027 12.3113C50.2978 12.6075 50.0875 12.9893 49.9989 13.4075C49.9103 13.8258 49.9473 14.2613 50.1054 14.658C50.2634 15.0547 50.5352 15.3945 50.8856 15.6336C51.2362 15.8727 51.6493 16.0002 52.0721 15.9997C52.3474 16.0191 52.6237 15.98 52.8832 15.8848C53.1427 15.7897 53.3796 15.6406 53.5787 15.4471C53.7777 15.2536 53.9346 15.0201 54.0391 14.7615C54.1436 14.5031 54.1933 14.2253 54.1853 13.9461Z" fill="#737680"/>
<path d="M58.2194 14.1237C58.2157 13.1964 58.4841 12.2887 58.9906 11.5159C59.4971 10.743 60.2189 10.1396 61.0645 9.78214C61.9102 9.42472 62.8416 9.32927 63.7409 9.50792C64.6402 9.68651 65.4668 10.1312 66.1162 10.7857C66.7655 11.4401 67.2082 12.2748 67.3884 13.1841C67.5686 14.0934 67.478 15.0363 67.1281 15.8935C66.7783 16.7505 66.1849 17.4834 65.4232 17.9989C64.6613 18.5145 63.7656 18.7898 62.8491 18.7898C62.2408 18.7969 61.6371 18.6811 61.0735 18.4493C60.5099 18.2175 59.9976 17.8744 59.5665 17.4399C59.1354 17.0055 58.7943 16.4885 58.563 15.9191C58.3317 15.3497 58.2149 14.7394 58.2194 14.1237ZM64.8582 14.1237C64.8472 13.724 64.7201 13.3364 64.4927 13.0094C64.2652 12.6824 63.9476 12.4304 63.5795 12.2852C63.2113 12.1398 62.8089 12.1075 62.4228 12.1923C62.0366 12.2771 61.6837 12.4752 61.4081 12.7619C61.1326 13.0485 60.9466 13.411 60.8736 13.804C60.8005 14.197 60.8436 14.603 60.9974 14.9714C61.1512 15.3397 61.4088 15.6541 61.7381 15.8751C62.0675 16.0961 62.4539 16.2139 62.8491 16.2139C63.1197 16.2212 63.3889 16.1717 63.6397 16.0685C63.8905 15.9653 64.1175 15.8106 64.3062 15.6143C64.4949 15.4179 64.6415 15.184 64.7364 14.9275C64.8314 14.671 64.8729 14.3973 64.8582 14.1237Z" fill="#737680"/>
<path d="M68.7009 7.33534C68.7009 7.02065 68.7931 6.71303 68.9659 6.45138C69.1388 6.18974 69.3843 5.9858 69.6716 5.86537C69.9589 5.74495 70.275 5.71344 70.5801 5.77484C70.8851 5.83623 71.1653 5.98776 71.3851 6.21028C71.605 6.43279 71.7548 6.71629 71.8155 7.02493C71.8761 7.33357 71.845 7.65348 71.726 7.94421C71.607 8.23494 71.4054 8.48343 71.1468 8.65826C70.8883 8.8331 70.5843 8.92641 70.2733 8.92641C69.8576 8.92222 69.46 8.75325 69.166 8.45577C68.8721 8.15828 68.7051 7.75602 68.7009 7.33534ZM68.9656 9.70409H71.5871V18.5434H68.9621L68.9656 9.70409Z" fill="#737680"/>
<path d="M82.9023 14.1238C82.9326 14.708 82.8485 15.2924 82.6547 15.8436C82.4611 16.3947 82.1615 16.9017 81.7735 17.3354C81.3855 17.769 80.9166 18.1207 80.3938 18.3704C79.8709 18.62 79.3045 18.7625 78.727 18.7898C78.2414 18.8167 77.7559 18.7338 77.3059 18.5472C76.8558 18.3607 76.4524 18.0751 76.125 17.7113V22.0782H73.5044V9.70412H76.125V10.5345C76.4526 10.1709 76.8561 9.88564 77.3061 9.69921C77.7561 9.51283 78.2415 9.43003 78.727 9.45683C79.3046 9.48403 79.8712 9.62653 80.3942 9.87618C80.917 10.1258 81.3861 10.4776 81.7742 10.9114C82.1622 11.3451 82.4616 11.8522 82.6553 12.4036C82.8489 12.9549 82.9329 13.5395 82.9023 14.1238ZM80.2817 14.1238C80.2715 13.7101 80.1409 13.3087 79.9063 12.9697C79.6717 12.6307 79.3435 12.3694 78.9628 12.2182C78.5822 12.0671 78.1659 12.033 77.7661 12.12C77.3663 12.2071 77.0007 12.4116 76.7153 12.7079C76.4297 13.0041 76.237 13.379 76.161 13.7856C76.0849 14.1922 76.1292 14.6125 76.288 14.9938C76.447 15.3751 76.7134 15.7005 77.0542 15.9293C77.395 16.1581 77.7948 16.2801 78.2038 16.28C78.4846 16.2927 78.7648 16.2451 79.0261 16.1406C79.2874 16.0359 79.5239 15.8765 79.7201 15.673C79.9164 15.4694 80.0678 15.2261 80.1646 14.9591C80.2614 14.6922 80.3013 14.4075 80.2817 14.1238Z" fill="#737680"/>
<path d="M90.9892 15.8907C90.9892 17.9238 89.243 18.7898 87.3565 18.7898C86.5943 18.8596 85.8289 18.6965 85.1593 18.3215C84.4897 17.9465 83.9466 17.3769 83.6003 16.6863L85.8706 15.3782C85.9625 15.6974 86.1598 15.9751 86.4295 16.1649C86.6993 16.3547 87.0253 16.4451 87.353 16.4211C87.9812 16.4211 88.2962 16.2264 88.2962 15.8738C88.2962 14.9005 83.9983 15.4139 83.9983 12.3559C83.9983 10.4282 85.6059 9.45677 87.4227 9.45677C88.1056 9.43489 88.7815 9.59884 89.3806 9.93143C89.9797 10.264 90.48 10.7532 90.8286 11.3479L88.5927 12.5675C88.4948 12.336 88.3315 12.1388 88.1234 12.0004C87.9153 11.8621 87.6716 11.7889 87.4227 11.7898C86.9683 11.7898 86.6886 11.9684 86.6886 12.2845C86.6921 13.2925 90.9892 12.6202 90.9892 15.8907Z" fill="#737680"/>
<path d="M100.562 9.7041V18.5434H97.9412V17.7121C97.6386 18.0789 97.2547 18.3679 96.8206 18.5554C96.3865 18.7429 95.9153 18.8236 95.4441 18.7907C93.6794 18.7907 92.1794 17.5184 92.1794 15.13V9.7041H94.8V14.7416C94.778 14.9521 94.8018 15.1649 94.8697 15.3653C94.9368 15.5656 95.0471 15.7486 95.1918 15.9016C95.3365 16.0545 95.5121 16.1737 95.7071 16.251C95.9012 16.3282 96.1103 16.3616 96.3194 16.3487C97.2803 16.3487 97.9439 15.7836 97.9439 14.5282V9.70678L100.562 9.7041Z" fill="#737680"/>
<path d="M115.588 13.1157V18.5425H112.968V13.3452C112.968 12.4612 112.549 11.8961 111.71 11.8961C110.837 11.8961 110.347 12.5148 110.347 13.5577V18.5425H107.727V13.3452C107.727 12.4612 107.308 11.8961 106.469 11.8961C105.596 11.8961 105.107 12.5148 105.107 13.5577V18.5425H102.486V9.70321H105.107V10.5157C105.379 10.1553 105.735 9.86937 106.144 9.68428C106.553 9.49912 107.001 9.4206 107.448 9.45587C107.896 9.43367 108.342 9.52946 108.744 9.73374C109.144 9.93812 109.486 10.2441 109.736 10.622C110.026 10.2267 110.411 9.9124 110.854 9.70847C111.297 9.50456 111.784 9.41764 112.269 9.45587C114.274 9.45676 115.588 10.9059 115.588 13.1157Z" fill="#737680"/>
<path d="M117.805 9.64965C118.879 9.64965 119.749 8.7686 119.749 7.68179C119.749 6.59496 118.879 5.71393 117.805 5.71393C116.731 5.71393 115.86 6.59496 115.86 7.68179C115.86 8.7686 116.731 9.64965 117.805 9.64965Z" fill="#737680"/>
</svg>
