<svg width="120" height="29" viewBox="0 0 120 29" fill="none" xmlns="http://www.w3.org/2000/svg">
<g clip-path="url(#clip0_5_75)">
<path d="M34.87 8.65893H37.87V20.7889H34.87V8.65893ZM39.06 16.2089C39.06 13.2089 40.9 11.4189 43.74 11.4189C46.58 11.4189 48.42 13.2089 48.42 16.2089C48.42 19.2089 46.62 21.0089 43.74 21.0089C40.86 21.0089 39.06 19.2589 39.06 16.2089ZM45.41 16.2089C45.41 14.5589 44.76 13.5889 43.74 13.5889C42.72 13.5889 42.08 14.5889 42.08 16.2089C42.08 17.8289 42.71 18.8089 43.74 18.8089C44.77 18.8089 45.41 17.8889 45.41 16.2189V16.2089ZM49.55 21.3789H52.43C52.5671 21.6834 52.7988 21.9355 53.0907 22.0977C53.3826 22.2598 53.7191 22.3234 54.05 22.2789C55.19 22.2789 55.79 21.6589 55.79 20.7589V19.0789H55.73C55.491 19.5938 55.1031 20.0252 54.6165 20.3176C54.1299 20.6099 53.5668 20.7497 53 20.7189C50.81 20.7189 49.36 19.0489 49.36 16.1789C49.36 13.3089 50.74 11.4989 53.04 11.4989C53.6246 11.476 54.2022 11.6323 54.6955 11.9468C55.1888 12.2614 55.5742 12.7192 55.8 13.2589V11.5889H58.8V20.6889C58.8 22.8789 56.87 24.2389 54.02 24.2389C51.37 24.2389 49.72 23.0489 49.55 21.3889V21.3789ZM55.8 16.1989C55.8 14.7389 55.13 13.8189 54.07 13.8189C53.01 13.8189 52.36 14.7289 52.36 16.1989C52.36 17.6689 53 18.4989 54.07 18.4989C55.14 18.4989 55.8 17.6889 55.8 16.2089V16.1989ZM59.93 16.1989C59.93 13.1989 61.77 11.4089 64.61 11.4089C67.45 11.4089 69.3 13.1989 69.3 16.1989C69.3 19.1989 67.5 20.9989 64.61 20.9989C61.72 20.9989 59.93 19.2589 59.93 16.2089V16.1989ZM66.28 16.1989C66.28 14.5489 65.63 13.5789 64.61 13.5789C63.59 13.5789 63 14.5889 63 16.2189C63 17.8489 63.63 18.8189 64.65 18.8189C65.67 18.8189 66.28 17.8889 66.28 16.2189V16.1989ZM70.44 9.40893C70.4321 9.10604 70.5144 8.80763 70.6763 8.55154C70.8383 8.29544 71.0726 8.0932 71.3496 7.97044C71.6266 7.84768 71.9338 7.80993 72.2323 7.86198C72.5308 7.91404 72.8071 8.05355 73.0262 8.26282C73.2454 8.4721 73.3974 8.74173 73.4631 9.03752C73.5288 9.33331 73.5052 9.64194 73.3952 9.92429C73.2853 10.2066 73.094 10.45 72.8456 10.6235C72.5973 10.797 72.3029 10.8929 72 10.8989C71.7992 10.9127 71.5977 10.8848 71.4082 10.817C71.2186 10.7492 71.0452 10.643 70.8987 10.5049C70.7522 10.3669 70.6358 10.2 70.5569 10.0149C70.4779 9.8297 70.4381 9.63021 70.44 9.42893V9.40893ZM70.44 11.6089H73.44V20.7889H70.44V11.6089ZM84.33 16.1989C84.33 19.1989 83 20.9089 80.72 20.9089C80.1354 20.9464 79.5533 20.8035 79.0525 20.4995C78.5517 20.1954 78.1564 19.7449 77.92 19.2089H77.86V23.7289H74.86V11.5889H77.86V13.2289H77.92C78.1454 12.684 78.5332 12.2218 79.0306 11.9051C79.528 11.5884 80.1109 11.4326 80.7 11.4589C83 11.4989 84.37 13.2189 84.37 16.2189L84.33 16.1989ZM81.33 16.1989C81.33 14.7389 80.66 13.8089 79.61 13.8089C78.56 13.8089 77.89 14.7489 77.88 16.1989C77.87 17.6489 78.56 18.5789 79.61 18.5789C80.66 18.5789 81.33 17.6689 81.33 16.2189V16.1989ZM89.48 11.3989C91.97 11.3989 93.48 12.5789 93.55 14.4689H90.82C90.82 13.8189 90.28 13.4089 89.45 13.4089C88.62 13.4089 88.25 13.7289 88.25 14.1989C88.25 14.6689 88.58 14.8189 89.25 14.9589L91.17 15.3489C93 15.7389 93.78 16.4789 93.78 17.8689C93.78 19.7689 92.05 20.9889 89.5 20.9889C86.95 20.9889 85.28 19.7689 85.15 17.8989H88.04C88.13 18.5789 88.67 18.9789 89.55 18.9789C90.43 18.9789 90.83 18.6889 90.83 18.2089C90.83 17.7289 90.55 17.6289 89.83 17.4789L88.1 17.1089C86.31 16.7389 85.37 15.7889 85.37 14.3889C85.39 12.5889 87 11.4189 89.48 11.4189V11.3989ZM103.79 20.7689H100.9V19.0589H100.84C100.681 19.633 100.331 20.1355 99.8468 20.483C99.3629 20.8304 98.7748 21.0019 98.18 20.9689C97.7242 20.9948 97.2682 20.9226 96.8427 20.7571C96.4172 20.5916 96.0322 20.3368 95.7137 20.0097C95.3952 19.6827 95.1505 19.291 94.9964 18.8613C94.8422 18.4316 94.7821 17.9738 94.82 17.5189V11.5889H97.82V16.8289C97.82 17.9189 98.38 18.4989 99.31 18.4989C99.5281 18.4993 99.7437 18.4532 99.9425 18.3635C100.141 18.2738 100.319 18.1426 100.463 17.9788C100.606 17.8149 100.714 17.6222 100.777 17.4136C100.84 17.2049 100.859 16.9851 100.83 16.7689V11.5889H103.83L103.79 20.7689ZM105.24 11.5889H108.14V13.3589H108.2C108.359 12.7924 108.702 12.2946 109.174 11.9436C109.646 11.5926 110.222 11.408 110.81 11.4189C111.409 11.371 112.003 11.5501 112.476 11.9207C112.948 12.2913 113.264 12.8261 113.36 13.4189H113.42C113.601 12.8198 113.977 12.2982 114.488 11.9361C114.998 11.574 115.615 11.392 116.24 11.4189C116.648 11.4052 117.054 11.4775 117.432 11.6311C117.811 11.7846 118.152 12.0161 118.435 12.3103C118.718 12.6046 118.936 12.9551 119.075 13.339C119.213 13.7229 119.27 14.1318 119.24 14.5389V20.7889H116.24V15.3389C116.24 14.3389 115.79 13.8789 114.95 13.8789C114.763 13.8773 114.577 13.9159 114.406 13.9921C114.235 14.0683 114.082 14.1803 113.958 14.3206C113.834 14.4609 113.741 14.6261 113.686 14.8052C113.631 14.9844 113.616 15.1732 113.64 15.3589V20.7889H110.79V15.2989C110.79 14.3789 110.34 13.8789 109.52 13.8789C109.331 13.879 109.143 13.9192 108.971 13.9969C108.798 14.0747 108.643 14.1882 108.518 14.3299C108.392 14.4716 108.298 14.6384 108.241 14.8193C108.185 15.0001 108.167 15.1908 108.19 15.3789V20.7889H105.19L105.24 11.5889Z" fill="#737680"/>
<path d="M26.48 9.20894C25.9711 8.0453 25.2975 6.96088 24.48 5.98894C23.2714 4.50928 21.7632 3.30234 20.0546 2.44755C18.346 1.59276 16.4758 1.10951 14.567 1.0296C12.6582 0.949694 10.7541 1.27494 8.98 1.98393C7.20594 2.69293 5.60214 3.7696 4.27417 5.14307C2.94619 6.51655 1.92414 8.15569 1.27529 9.95262C0.626436 11.7495 0.365493 13.6635 0.509634 15.5685C0.653775 17.4736 1.19973 19.3265 2.11157 21.0053C3.02341 22.6842 4.28046 24.1509 5.79998 25.3089C6.77498 26.0668 7.85233 26.6829 8.99998 27.1389C10.609 27.7983 12.3311 28.1379 14.07 28.1389C17.6594 28.131 21.0992 26.7002 23.6354 24.1602C26.1717 21.6203 27.5973 18.1783 27.6 14.5889C27.6026 12.7374 27.2213 10.9055 26.48 9.20894ZM14.06 3.77894C15.6215 3.77877 17.1642 4.12008 18.58 4.77894C18.2347 4.92811 17.8718 5.0323 17.5 5.08894C16.2766 5.26604 15.1432 5.83402 14.2691 6.70811C13.3951 7.58221 12.8271 8.71554 12.65 9.93894C12.5722 10.625 12.2602 11.2633 11.7665 11.7461C11.2728 12.2289 10.6277 12.5266 9.93998 12.5889C8.71657 12.766 7.58324 13.334 6.70915 14.2081C5.83505 15.0822 5.26707 16.2155 5.08998 17.4389C5.03002 18.0913 4.75167 18.7044 4.29998 19.1789C3.52063 17.5322 3.17053 15.715 3.28225 13.8966C3.39397 12.0782 3.96388 10.3176 4.93895 8.77869C5.91401 7.23974 7.26255 5.97246 8.85905 5.09479C10.4555 4.21712 12.2481 3.75758 14.07 3.75894L14.06 3.77894ZM5.78998 21.5889C5.90998 21.4789 6.02998 21.3789 6.14998 21.2589C7.03963 20.3964 7.61069 19.2578 7.76998 18.0289C7.83456 17.3382 8.14298 16.693 8.63998 16.2089C9.11822 15.7111 9.76195 15.4052 10.45 15.3489C11.6734 15.1718 12.8067 14.6038 13.6808 13.7297C14.5549 12.8556 15.1229 11.7223 15.3 10.4989C15.3432 9.77645 15.6533 9.09578 16.17 8.58894C16.66 8.10079 17.3099 7.80604 18 7.75894C19.1239 7.6043 20.1721 7.10466 21 6.32894C21.9426 7.11101 22.7413 8.05184 23.36 9.10894C23.322 9.16029 23.2784 9.20725 23.23 9.24894C22.7526 9.75114 22.1098 10.0637 21.42 10.1289C20.1953 10.3029 19.0603 10.8699 18.1856 11.7446C17.311 12.6192 16.744 13.7543 16.57 14.9789C16.4995 15.6673 16.1932 16.3102 15.7029 16.7987C15.2127 17.2871 14.5687 17.591 13.88 17.6589C12.653 17.8347 11.5154 18.4015 10.6363 19.2752C9.75713 20.149 9.18328 21.283 8.99998 22.5089C8.94616 22.9976 8.77832 23.4669 8.50998 23.8789C7.48397 23.2697 6.56506 22.4961 5.78998 21.5889ZM14.06 25.4489C13.0452 25.45 12.0354 25.3086 11.06 25.0289C11.3936 24.4069 11.6106 23.7291 11.7 23.0289C11.7701 22.342 12.0749 21.7003 12.5632 21.2121C13.0514 20.7239 13.6931 20.419 14.38 20.3489C15.6052 20.1738 16.7408 19.6067 17.6168 18.7324C18.4929 17.8582 19.0624 16.7238 19.24 15.4989C19.3101 14.812 19.6149 14.1703 20.1032 13.6821C20.5914 13.1939 21.2331 12.889 21.92 12.8189C22.842 12.699 23.7208 12.3557 24.48 11.8189C24.9015 13.4168 24.9515 15.0901 24.626 16.7103C24.3004 18.3305 23.6081 19.8546 22.6021 21.1657C21.5961 22.4768 20.3031 23.54 18.8224 24.2738C17.3417 25.0076 15.7125 25.3925 14.06 25.3989V25.4489Z" fill="#737680"/>
</g>
<defs>
<clipPath id="clip0_5_75">
<rect width="120" height="28" fill="white" transform="translate(0 0.588928)"/>
</clipPath>
</defs>
</svg>
