<svg width="120" height="25" viewBox="0 0 120 25" fill="none" xmlns="http://www.w3.org/2000/svg">
<g clip-path="url(#clip0_5_92)">
<path d="M38.522 19.9789C37.9172 20.0111 37.3189 19.842 36.8237 19.4989C36.6168 19.3481 36.4503 19.15 36.3387 18.9218C36.2271 18.6935 36.1737 18.442 36.1831 18.1889V8.91893C36.1781 8.87968 36.1823 8.83983 36.1954 8.80243C36.2085 8.76503 36.23 8.73106 36.2585 8.7031C36.2869 8.67513 36.3215 8.65393 36.3595 8.64107C36.3975 8.62822 36.438 8.62407 36.478 8.62893H38.1864C38.3797 8.62893 38.4712 8.72893 38.4712 8.91893V17.4689C38.4712 17.8489 38.6441 18.0389 39 18.0389C39.1508 18.045 39.3018 18.0282 39.4475 17.9889C39.6508 17.9889 39.7627 18.0489 39.7729 18.2289L39.9254 19.4789C39.9327 19.5153 39.932 19.5529 39.9234 19.5891C39.9146 19.6252 39.8982 19.6591 39.8751 19.6885C39.852 19.7179 39.8227 19.742 39.7893 19.7594C39.7559 19.7767 39.7191 19.7867 39.6814 19.7889C39.3071 19.9104 38.9161 19.9745 38.522 19.9789Z" fill="#737680"/>
<path d="M48.1322 18.9089C47.2738 19.6064 46.1949 19.9879 45.0813 19.9879C43.9678 19.9879 42.889 19.6064 42.0305 18.9089C41.276 18.1599 40.8527 17.1482 40.8527 16.0939C40.8527 15.0396 41.276 14.0279 42.0305 13.2789C42.8906 12.585 43.9688 12.2058 45.0813 12.2058C46.1939 12.2058 47.2721 12.585 48.1322 13.2789C48.8694 14.0348 49.2809 15.0416 49.2809 16.0889C49.2809 17.1362 48.8694 18.143 48.1322 18.8989V18.9089ZM43.6373 17.5889C44.0357 17.9437 44.554 18.1403 45.0915 18.1403C45.6291 18.1403 46.1474 17.9437 46.5457 17.5889C46.9064 17.1812 47.1049 16.6592 47.1049 16.1189C47.1049 15.5786 46.9064 15.0565 46.5457 14.6489C46.1474 14.294 45.6291 14.0975 45.0915 14.0975C44.554 14.0975 44.0357 14.294 43.6373 14.6489C43.2768 15.0565 43.0782 15.5786 43.0782 16.1189C43.0782 16.6592 43.2768 17.1812 43.6373 17.5889Z" fill="#737680"/>
<path d="M58.6881 12.4589C58.8813 12.4589 58.9729 12.5589 58.9729 12.7489V19.9189C58.9907 20.4028 58.8985 20.8846 58.7033 21.3291C58.508 21.7737 58.2145 22.1699 57.844 22.4889C57.0217 23.1783 55.9643 23.5357 54.8847 23.4889C53.9096 23.5226 52.9475 23.2608 52.1288 22.7389C51.7792 22.5131 51.4805 22.2191 51.2513 21.875C51.0221 21.531 50.8674 21.1443 50.7966 20.7389C50.7966 20.5389 50.7966 20.4489 51.0712 20.4489H52.7796C52.8522 20.4513 52.9224 20.4743 52.982 20.5151C53.0415 20.5559 53.0878 20.6128 53.1152 20.6789C53.226 20.9826 53.4469 21.2354 53.7356 21.3889C54.0873 21.5674 54.4788 21.6567 54.8746 21.6489C55.1133 21.6618 55.3523 21.6277 55.5776 21.5487C55.8028 21.4697 56.0098 21.3474 56.1864 21.1889C56.3477 21.0231 56.4733 20.8268 56.5555 20.612C56.6375 20.3972 56.6747 20.1682 56.6644 19.9389V19.3089C56.0527 19.7513 55.3082 19.9801 54.5491 19.9589C54.0179 19.9779 53.4881 19.8911 52.9919 19.7038C52.4956 19.5165 52.0429 19.2325 51.661 18.8689C50.9278 18.123 50.5179 17.1263 50.5179 16.0889C50.5179 15.0515 50.9278 14.0548 51.661 13.3089C52.0447 12.9485 52.4979 12.6672 52.994 12.4818C53.49 12.2963 54.0188 12.2103 54.5491 12.2289C55.3301 12.2086 56.0946 12.4521 56.7152 12.9189V12.7589C56.7106 12.7206 56.7146 12.6817 56.7271 12.6451C56.7396 12.6085 56.7603 12.5752 56.7875 12.5474C56.8148 12.5196 56.848 12.4982 56.8848 12.4846C56.9215 12.471 56.9608 12.4657 57 12.4689L58.6881 12.4589ZM54.7424 18.1789C55.0043 18.1869 55.2649 18.1382 55.5057 18.0362C55.7464 17.9343 55.9615 17.7816 56.1356 17.5889C56.4736 17.1596 56.6571 16.6319 56.6571 16.0889C56.6571 15.5459 56.4736 15.0182 56.1356 14.5889C55.9621 14.3988 55.7483 14.2484 55.5093 14.1482C55.2705 14.048 55.0121 14.0005 54.7525 14.0089C54.4875 14.0007 54.2238 14.0492 53.9797 14.1511C53.7357 14.253 53.517 14.4058 53.339 14.5989C52.9644 15.0096 52.7674 15.5477 52.7898 16.0989C52.7714 16.6447 52.964 17.1771 53.3288 17.5889C53.5073 17.7815 53.726 17.9339 53.97 18.0358C54.2139 18.1376 54.4774 18.1864 54.7424 18.1789Z" fill="#737680"/>
<path d="M67.7492 18.9089C66.889 19.6028 65.8109 19.982 64.6983 19.982C63.5858 19.982 62.5076 19.6028 61.6475 18.9089C60.9097 18.1513 60.4978 17.1428 60.4978 16.0939C60.4978 15.0449 60.9097 14.0365 61.6475 13.2789C62.5084 12.5868 63.5863 12.2087 64.6983 12.2087C65.8103 12.2087 66.8882 12.5868 67.7492 13.2789C68.4864 14.0348 68.8979 15.0416 68.8979 16.0889C68.8979 17.1362 68.4864 18.143 67.7492 18.8989V18.9089ZM63.2441 17.5889C63.439 17.7713 63.6689 17.9138 63.9202 18.0082C64.1716 18.1026 64.4395 18.147 64.7085 18.1389C64.9757 18.1457 65.2418 18.1006 65.4913 18.0063C65.7408 17.9119 65.969 17.7701 66.1627 17.5889C66.5174 17.1785 66.7122 16.6575 66.7122 16.1189C66.7122 15.5803 66.5174 15.0593 66.1627 14.6489C65.969 14.4677 65.7408 14.3259 65.4913 14.2315C65.2418 14.1372 64.9757 14.0921 64.7085 14.0989C64.4395 14.0907 64.1716 14.1352 63.9202 14.2296C63.6689 14.324 63.439 14.4665 63.2441 14.6489C62.8894 15.0593 62.6946 15.5803 62.6946 16.1189C62.6946 16.6575 62.8894 17.1785 63.2441 17.5889Z" fill="#737680"/>
<path d="M72.5695 10.7589C72.3007 10.9903 71.9556 11.1178 71.5983 11.1178C71.2411 11.1178 70.896 10.9903 70.6271 10.7589C70.5053 10.6458 70.4082 10.5094 70.3418 10.3581C70.2755 10.2068 70.2412 10.0437 70.2412 9.87895C70.2412 9.71415 70.2755 9.55109 70.3418 9.39977C70.4082 9.24845 70.5053 9.11205 70.6271 8.99895C70.8988 8.77336 71.2428 8.6496 71.5983 8.6496C71.9539 8.6496 72.2979 8.77336 72.5695 8.99895C72.6914 9.11205 72.7885 9.24845 72.8549 9.39977C72.9213 9.55109 72.9554 9.71415 72.9554 9.87895C72.9554 10.0437 72.9213 10.2068 72.8549 10.3581C72.7885 10.5094 72.6914 10.6458 72.5695 10.7589ZM72.7831 19.9789C72.1786 20.0081 71.5813 19.8393 71.0848 19.4989C70.881 19.3459 70.7174 19.1471 70.6078 18.9192C70.4981 18.6913 70.4454 18.4409 70.4543 18.1889V12.7489C70.4494 12.7097 70.4535 12.6698 70.4667 12.6324C70.4797 12.595 70.5012 12.5611 70.5297 12.5331C70.5582 12.5051 70.5927 12.4839 70.6307 12.4711C70.6687 12.4582 70.7093 12.4541 70.7492 12.4589H72.4576C72.6509 12.4589 72.7424 12.5589 72.7424 12.7489V17.4689C72.7424 17.8489 72.9153 18.0389 73.261 18.0389C73.4153 18.0444 73.5695 18.0275 73.7187 17.9889C73.9221 17.9889 74.0339 18.0489 74.0441 18.2289L74.1966 19.4789C74.204 19.5154 74.2032 19.5529 74.1946 19.5891C74.186 19.6252 74.1695 19.6591 74.1463 19.6885C74.1232 19.7179 74.0939 19.7421 74.0606 19.7594C74.0271 19.7767 73.9903 19.7868 73.9526 19.7889C73.5751 19.9112 73.1806 19.9753 72.7831 19.9789Z" fill="#737680"/>
<path d="M80.4813 12.2189C81.0149 12.1982 81.5474 12.2831 82.047 12.4686C82.5467 12.6541 83.0033 12.9365 83.3898 13.2989C84.1089 14.0578 84.5088 15.0566 84.5088 16.0939C84.5088 17.1312 84.1089 18.13 83.3898 18.8889C83.0052 19.2545 82.5491 19.5397 82.0492 19.727C81.5492 19.9144 81.0158 20.0001 80.4813 19.9789C79.7197 19.9956 78.9735 19.7673 78.3559 19.3289V22.9389C78.3559 23.1289 78.2542 23.2189 78.061 23.2189H76.3525C76.3136 23.2261 76.2734 23.2238 76.2355 23.2122C76.1976 23.2007 76.1632 23.1803 76.1351 23.1527C76.107 23.1251 76.0863 23.0912 76.0746 23.054C76.0628 23.0167 76.0605 22.9772 76.0678 22.9389V14.7389C76.0798 14.6587 76.0725 14.5769 76.0465 14.4999C76.0207 14.423 75.9768 14.353 75.9185 14.2957C75.8602 14.2384 75.7891 14.1953 75.7108 14.1698C75.6325 14.1443 75.5493 14.1371 75.4678 14.1489H75.1322C74.9085 14.1489 74.7966 14.0689 74.7966 13.9089V12.7289C74.7913 12.6559 74.8116 12.5833 74.8543 12.5233C74.8968 12.4632 74.959 12.4193 75.0305 12.3989C75.3823 12.2732 75.7546 12.2122 76.1288 12.2189C76.502 12.1864 76.8766 12.2642 77.2045 12.4424C77.5324 12.6206 77.7988 12.8909 77.9695 13.2189C78.297 12.8931 78.6888 12.6363 79.1207 12.4644C79.5525 12.2925 80.0155 12.2089 80.4813 12.2189ZM78.8949 17.5889C79.0762 17.7753 79.2941 17.9236 79.5353 18.0249C79.7764 18.1262 80.036 18.1784 80.2983 18.1784C80.5606 18.1784 80.8201 18.1262 81.0613 18.0249C81.3025 17.9236 81.5204 17.7753 81.7017 17.5889C82.0836 17.17 82.2843 16.6211 82.261 16.0589C82.2876 15.4962 82.0865 14.9461 81.7017 14.5289C81.5204 14.3426 81.3025 14.1943 81.0613 14.0929C80.8201 13.9916 80.5606 13.9394 80.2983 13.9394C80.036 13.9394 79.7764 13.9916 79.5353 14.0929C79.2941 14.1943 79.0762 14.3426 78.8949 14.5289C78.5248 14.9535 78.3322 15.5002 78.3559 16.0589C78.3353 16.6172 78.5275 17.1628 78.8949 17.5889Z" fill="#737680"/>
<path d="M89.3085 19.9789C88.3956 20.0158 87.4903 19.8011 86.6949 19.3589C86.3757 19.1699 86.104 18.9126 85.8998 18.6062C85.6956 18.2998 85.5641 17.9521 85.5153 17.5889C85.5153 17.3889 85.5864 17.2889 85.8102 17.2889H87.3051C87.3762 17.2916 87.4451 17.3136 87.5043 17.3524C87.5636 17.3913 87.6108 17.4454 87.6407 17.5089C87.8542 18.0489 88.4136 18.3189 89.3085 18.3189C89.6206 18.3329 89.9315 18.2711 90.2136 18.1389C90.3109 18.0957 90.3945 18.0273 90.4554 17.941C90.5163 17.8547 90.5522 17.7537 90.5593 17.6489C90.5593 17.3889 90.3966 17.2089 90.0712 17.0889C89.6852 16.9626 89.2861 16.8787 88.8814 16.8389C88.4018 16.7855 87.9262 16.702 87.4576 16.5889C87.0018 16.4875 86.5874 16.2541 86.2678 15.9189C86.0796 15.6911 85.941 15.4276 85.8607 15.1449C85.7805 14.8622 85.7601 14.5662 85.8012 14.2755C85.8422 13.9847 85.9436 13.7053 86.0991 13.4548C86.2546 13.2042 86.4608 12.9878 86.7051 12.8189C87.438 12.3598 88.298 12.1361 89.1661 12.1789C90.0064 12.151 90.838 12.3554 91.5661 12.7689C91.8595 12.9324 92.1122 13.1581 92.3057 13.4297C92.4993 13.7013 92.6287 14.0119 92.6848 14.3389C92.6848 14.5389 92.5932 14.6389 92.4102 14.6389H90.9051C90.8417 14.6426 90.7787 14.6274 90.7243 14.5953C90.6698 14.5632 90.6264 14.5156 90.6 14.4589C90.4994 14.2221 90.3101 14.0323 90.0712 13.9289C89.8017 13.7903 89.5007 13.7214 89.1966 13.7289C88.8984 13.713 88.6011 13.7715 88.3322 13.8989C88.2374 13.9349 88.1558 13.9979 88.0978 14.0799C88.0397 14.1619 88.0081 14.259 88.0068 14.3589C88.0133 14.4957 88.0641 14.6268 88.152 14.733C88.2399 14.8391 88.3601 14.9148 88.4949 14.9489C88.8854 15.0936 89.2914 15.1943 89.7051 15.2489C90.1807 15.3105 90.6526 15.3972 91.1187 15.5089C91.5743 15.6104 91.9889 15.8437 92.3085 16.1789C92.4794 16.3636 92.6115 16.5797 92.6971 16.8149C92.7826 17.05 92.8199 17.2995 92.8068 17.5489C92.8155 17.8946 92.733 18.2366 92.5673 18.5416C92.4015 18.8465 92.1582 19.104 91.861 19.2889C91.1012 19.7686 90.2108 20.0092 89.3085 19.9789Z" fill="#737680"/>
<path d="M103.556 19.4789C103.562 19.5144 103.56 19.5507 103.552 19.5856C103.543 19.6205 103.527 19.6534 103.505 19.6823C103.484 19.7111 103.456 19.7355 103.425 19.7538C103.393 19.7721 103.359 19.784 103.322 19.7889C102.951 19.9081 102.563 19.9721 102.173 19.9789C101.786 20.0183 101.396 19.9588 101.04 19.8064C100.683 19.654 100.373 19.4138 100.139 19.1089C99.4206 19.7162 98.4918 20.0278 97.5458 19.9789C97.1065 19.9988 96.6678 19.9281 96.258 19.7714C95.8482 19.6147 95.4763 19.3754 95.1661 19.0689C94.8581 18.7478 94.6191 18.3688 94.4636 17.9547C94.3081 17.5405 94.2392 17.0998 94.261 16.6589V12.7489C94.261 12.5589 94.3526 12.4589 94.5458 12.4589H96.2543C96.4475 12.4589 96.539 12.5589 96.539 12.7489V16.3589C96.5204 16.8087 96.6768 17.2485 96.9763 17.5889C97.1258 17.7448 97.3075 17.8675 97.5092 17.9485C97.7109 18.0296 97.928 18.0673 98.1458 18.0589C98.3686 18.0685 98.5912 18.0345 98.8007 17.959C99.0102 17.8835 99.2023 17.7679 99.3661 17.6189C99.5211 17.4619 99.6416 17.2752 99.7203 17.0705C99.799 16.8659 99.8342 16.6475 99.8237 16.4289V12.7489C99.8237 12.5589 99.9153 12.4589 100.108 12.4589H101.837C102.031 12.4589 102.122 12.5589 102.122 12.7489V17.4589C102.122 17.8489 102.295 18.0389 102.631 18.0389C102.788 18.0449 102.946 18.028 103.098 17.9889C103.137 17.9783 103.177 17.9764 103.216 17.9833C103.256 17.9903 103.293 18.0059 103.325 18.029C103.358 18.0521 103.384 18.082 103.402 18.1167C103.422 18.1513 103.432 18.1897 103.434 18.2289L103.556 19.4789Z" fill="#737680"/>
<path d="M119.715 19.4789C119.724 19.5147 119.725 19.552 119.718 19.5882C119.71 19.6244 119.695 19.6586 119.673 19.6882C119.65 19.7178 119.622 19.7422 119.588 19.7596C119.556 19.777 119.519 19.787 119.481 19.7889C119.103 19.9098 118.71 19.9738 118.312 19.9789C117.707 20.0096 117.11 19.8406 116.614 19.4989C116.399 19.3525 116.225 19.1564 116.106 18.9279C115.987 18.6993 115.927 18.4455 115.932 18.1889V15.8389C115.954 15.3905 115.801 14.9508 115.505 14.6089C115.363 14.4526 115.186 14.3294 114.99 14.2481C114.792 14.1668 114.58 14.1295 114.366 14.1389C114.174 14.1318 113.983 14.1676 113.806 14.2439C113.63 14.3201 113.473 14.4346 113.349 14.5789C113.081 14.914 112.943 15.3327 112.963 15.7589V19.4489C112.963 19.6389 112.871 19.7389 112.678 19.7389H110.959C110.92 19.7438 110.879 19.7396 110.84 19.7268C110.803 19.7139 110.768 19.6927 110.74 19.6647C110.711 19.6368 110.69 19.6028 110.677 19.5654C110.663 19.528 110.659 19.4881 110.664 19.4489V15.8389C110.687 15.3954 110.545 14.9588 110.268 14.6089C110.144 14.4619 109.988 14.3436 109.812 14.2624C109.637 14.1811 109.445 14.139 109.251 14.1389C109.043 14.1307 108.837 14.1656 108.644 14.2414C108.451 14.3173 108.277 14.4323 108.132 14.5789C107.841 14.9033 107.692 15.327 107.715 15.7589V19.4489C107.72 19.4881 107.716 19.528 107.703 19.5654C107.69 19.6028 107.669 19.6368 107.64 19.6647C107.612 19.6927 107.577 19.7139 107.538 19.7268C107.501 19.7396 107.46 19.7438 107.42 19.7389H105.763C105.57 19.7389 105.478 19.6389 105.478 19.4489V14.7389C105.49 14.6587 105.483 14.5769 105.457 14.4999C105.431 14.4229 105.387 14.353 105.329 14.2957C105.271 14.2384 105.199 14.1953 105.121 14.1698C105.043 14.1443 104.959 14.1371 104.878 14.1489H104.542C104.319 14.1489 104.207 14.0689 104.207 13.9089V12.7289C104.202 12.6559 104.222 12.5833 104.265 12.5232C104.307 12.4632 104.37 12.4193 104.441 12.3989C104.793 12.2732 105.165 12.2121 105.539 12.2189C105.898 12.1888 106.259 12.2592 106.579 12.422C106.9 12.5848 107.166 12.8333 107.349 13.1389C107.692 12.8191 108.099 12.5724 108.543 12.4141C108.987 12.2558 109.46 12.1894 109.932 12.2189C110.391 12.1969 110.847 12.2814 111.266 12.4656C111.684 12.6498 112.054 12.9284 112.342 13.2789C112.679 12.9192 113.093 12.6375 113.554 12.4542C114.014 12.2709 114.511 12.1905 115.007 12.2189C115.45 12.1985 115.894 12.2688 116.309 12.4254C116.723 12.5821 117.101 12.8216 117.417 13.1289C117.726 13.4494 117.965 13.8283 118.121 14.2425C118.276 14.6568 118.345 15.0979 118.322 15.5389V17.4689C118.322 17.8489 118.495 18.0389 118.82 18.0389C118.978 18.0461 119.136 18.0293 119.288 17.9889C119.499 17.9889 119.611 18.0689 119.624 18.2289L119.715 19.4789Z" fill="#737680"/>
<path d="M0.467731 11.1589C1.21801 8.19362 2.95562 5.56037 5.4039 3.67847C7.85219 1.79657 10.8704 0.774231 13.9779 0.774231C17.0854 0.774231 20.1036 1.79657 22.5519 3.67847C25.0002 5.56037 26.7378 8.19362 27.4881 11.1589H26.2677C24.2091 11.1291 22.1927 11.7341 20.5016 12.8889C20.404 12.9584 20.3021 13.0219 20.1966 13.0789H20.0542C19.9486 13.0219 19.8467 12.9584 19.7491 12.8889C18.0431 11.7608 16.0338 11.1583 13.9779 11.1583C11.922 11.1583 9.91276 11.7608 8.20672 12.8889C8.10912 12.9584 8.00723 13.0219 7.90163 13.0789H7.75926C7.65366 13.0219 7.55177 12.9584 7.45417 12.8889C5.76312 11.7341 3.7467 11.1291 1.68807 11.1589H0.467731ZM24.0711 17.4289C24.6976 16.9492 25.474 16.6982 26.2677 16.7189H27.905V13.5089H26.2677C24.8696 13.4923 23.5036 13.9202 22.3728 14.7289C21.7365 15.1902 20.9667 15.4391 20.1762 15.4391C19.3856 15.4391 18.6159 15.1902 17.9796 14.7289C16.8202 13.9353 15.4414 13.5099 14.0288 13.5099C12.6161 13.5099 11.2373 13.9353 10.0779 14.7289C9.4416 15.1902 8.67183 15.4391 7.88129 15.4391C7.09076 15.4391 6.32099 15.1902 5.68468 14.7289C4.54 13.9099 3.1543 13.4814 1.73892 13.5089H0.0507812V16.7189H1.68807C2.48181 16.6982 3.25823 16.9492 3.88468 17.4289C5.04198 18.2231 6.41921 18.6489 7.83044 18.6489C9.24166 18.6489 10.6189 18.2231 11.7762 17.4289C12.4035 16.9507 13.1793 16.6999 13.9728 16.7189C14.7668 16.6965 15.5438 16.9477 16.1694 17.4289C17.3289 18.2226 18.7076 18.648 20.1203 18.648C21.5329 18.648 22.9117 18.2226 24.0711 17.4289ZM24.0711 23.1689C24.6976 22.6892 25.474 22.4382 26.2677 22.4589H27.905V19.2489H26.2677C24.8696 19.2323 23.5036 19.6602 22.3728 20.4689C21.7365 20.9302 20.9667 21.1791 20.1762 21.1791C19.3856 21.1791 18.6159 20.9302 17.9796 20.4689C16.8202 19.6753 15.4414 19.2499 14.0288 19.2499C12.6161 19.2499 11.2373 19.6753 10.0779 20.4689C9.4416 20.9302 8.67183 21.1791 7.88129 21.1791C7.09076 21.1791 6.32099 20.9302 5.68468 20.4689C4.54 19.6499 3.1543 19.2214 1.73892 19.2489H0.0507812V22.4589H1.68807C2.48181 22.4382 3.25823 22.6892 3.88468 23.1689C5.04198 23.9631 6.41921 24.3889 7.83044 24.3889C9.24166 24.3889 10.6189 23.9631 11.7762 23.1689C12.4035 22.6907 13.1793 22.4399 13.9728 22.4589C14.7668 22.4365 15.5438 22.6877 16.1694 23.1689C17.3289 23.9626 18.7076 24.388 20.1203 24.388C21.5329 24.388 22.9117 23.9626 24.0711 23.1689Z" fill="#737680"/>
</g>
<defs>
<clipPath id="clip0_5_92">
<rect width="120" height="24" fill="white" transform="translate(0 0.588928)"/>
</clipPath>
</defs>
</svg>
